{"title":"Bionicle.-.The.Mask.of.Light.[2003].Swedish.DvDRiP.XviD-KnÃƒÂ£","uid":6374510,"size":733812736,"categoryP":"video","categoryS":"movies","magnet":"?xt=urn:btih:c52044b7fc5bd00d7e457d75cb2d92e9348490a6&amp;dn=Bionicle.-.The.Mask.of.Light.%5B2003%5D.Swedish.DvDRiP.XviD-Kn%C3%83%C2%A3&amp;tr=udp%3A%2F%2Ftracker.openbittorrent.com%3A80&amp;tr=udp%3A%2F%2Fopen.demonii.com%3A1337&amp;tr=udp%3A%2F%2Ftracker.coppersurfer.tk%3A6969&amp;tr=udp%3A%2F%2Fexodus.desync.com%3A6969","seeders":0,"leechers":1,"uploader":"Jon.Pson","files":1,"time":1304805157,"description":"General\nComplete name                    : X:\\Barnfilmer\\Bionicle.-.The.Mask.of.Light.[2003].Swedish.DvDRiP.XviD-KnÃƒÂ£\\Bionicle.-.The.Mask.of.Light.[2003].Swedish.DvDRiP.XviD-KnÃƒÂ£.avi\nFormat                           : AVI\nFormat/Info                      : Audio Video Interleave\nFile size                        : 700 MiB\nDuration                         : 1h 14mn\nOverall bit rate                 : 1 317 Kbps\nWriting application              : VirtualDubMod 1.5.4.1 (build 2178/release)\nWriting library                  : VirtualDubMod build 2178/release\n\nVideo\nID                               : 0\nFormat                           : MPEG-4 Visual\nFormat profile                   : Advanced Simple@L5\nFormat settings, BVOP            : Yes\nFormat settings, QPel            : No\nFormat settings, GMC             : No warppoints\nFormat settings, Matrix          : Custom\nCodec ID                         : XVID\nCodec ID/Hint                    : XviD\nDuration                         : 1h 14mn\nBit rate                         : 1 186 Kbps\nWidth                            : 768 pixels\nHeight                           : 448 pixels\nDisplay aspect ratio             : 16:9\nFrame rate                       : 25.000 fps\nColor space                      : YUV\nChroma subsampling               : 4:2:0\nBit depth                        : 8 bits\nScan type                        : Progressive\nBits/(Pixel*Frame)               : 0.138\nStream size                      : 631 MiB (90%)\nWriting library                  : XviD 1.2.0.dev47 (UTC 2006-11-01)\n\nAudio\nID                               : 1\nFormat                           : MPEG Audio\nFormat version                   : Version 1\nFormat profile                   : Layer 3\nMode                             : Joint stereo\nMode extension                   : MS Stereo\nCodec ID                         : 55\nCodec ID/Hint                    : MP3\nDuration                         : 1h 14mn\nBit rate mode                    : Variable\nBit rate                         : 117 Kbps\nNominal bit rate                 : 128 Kbps\nChannel(s)                       : 2 channels\nSampling rate                    : 48.0 KHz\nStream size                      : 62.3 MiB (9%)\nAlignment                        : Aligned on interleaves\nInterleave, duration             : 24 ms (0.60 video frame)\nInterleave, preload duration     : 157 ms\nWriting library                  : LAME3.97 \nEncoding settings                : -m j -V 4 -q 2 -lowpass 17 --abr 128\nLanguage                         : Swedish\n\n","torrent":{"xt":"urn:btih:c52044b7fc5bd00d7e457d75cb2d92e9348490a6","amp;dn":"Bionicle.-.The.Mask.of.Light.%5B2003%5D.Swedish.DvDRiP.XviD-Kn%C3%83%C2%A3","amp;tr":["udp%3A%2F%2Ftracker.openbittorrent.com%3A80","udp%3A%2F%2Fopen.demonii.com%3A1337","udp%3A%2F%2Ftracker.coppersurfer.tk%3A6969","udp%3A%2F%2Fexodus.desync.com%3A6969"],"infoHash":"c52044b7fc5bd00d7e457d75cb2d92e9348490a6","infoHashBuffer":{"type":"Buffer","data":[197,32,68,183,252,91,208,13,126,69,125,117,203,45,146,233,52,132,144,166]},"announce":[],"urlList":[]}}